<svg id="Lager_1" data-name="Lager 1" xmlns="http://www.w3.org/2000/svg" viewBox="0 0 30 30"><defs><style>.cls-1{fill:#fff;}</style></defs><path class="cls-1" d="M25,10A15,15,0,1,0,40,25,15,15,0,0,0,25,10Zm6.69,11.54a10,10,0,0,1-3,7.77c-4.92,4.66-12,1-12,1,3.4,0,4.84-1.39,4.84-1.39-2.8-.48-3.08-2.48-3.08-2.48.48.3,1.53,0,1.53,0-3.12-1.44-2.63-3.32-2.63-3.32a2.29,2.29,0,0,0,1.58.32,3.38,3.38,0,0,1-1.05-4.34c4.26,4.05,7,3.22,7,3.22-.19-2.86,1.49-4,3.31-4a3.14,3.14,0,0,1,2.42,1,3.91,3.91,0,0,0,2.28-.69c-.1,1-1.39,1.76-1.39,1.76a6.59,6.59,0,0,0,1.85-.3,3.13,3.13,0,0,1-1.64,1.43Zm0,0" transform="translate(-10 -10)"/></svg>